<svg xmlns="http://www.w3.org/2000/svg" xmlns:xlink="http://www.w3.org/1999/xlink" width="25" height="34" viewBox="0 0 25 34"><defs><path id="oupga" d="M533.64 2508.49c0 .47-.46.4-.46.4h-4.37c-.24 0-.3-.1-.35-.16a5.86 5.86 0 0 0-2.8-1.83c-.07-.02-.2-.06-.1-.14.23-.2.32-.3.5-.53a.34.34 0 0 1 .26-.13h3.65c.93 0 1.68-.7 1.68-1.54v-4.02c0-.85-.75-1.53-1.68-1.53h-14.93c-.93 0-1.68.68-1.68 1.53v4.02c0 .85.75 1.54 1.68 1.54h3.54c.26 0 .37.13.42.2.17.2.26.3.46.46.1.08 0 .1-.05.12a5.9 5.9 0 0 0-2.85 1.83.44.44 0 0 1-.35.18h-4.33s-.5.06-.5-.5v-10.12c0-.56.49-1.01 1.1-1.01h20.05c.61 0 1.1.45 1.1 1.01v10.22zm-14.2-4.67c0-1.54 1.37-2.8 3.05-2.8 1.69 0 3.05 1.26 3.05 2.8 0 1.55-1.36 2.8-3.04 2.8-1.69 0-3.05-1.25-3.05-2.8zm1.66 4.05h2.8c.87 0 1.89.35 2.65.88.07.05.18.14-.08.14h-7.88c-.32 0-.23-.08-.17-.13.77-.53 1.79-.89 2.68-.89zm4.53 10.8h-1.48s-.33 0-.33.23v1.42c0 .67-.6 1.21-1.32 1.21-.73 0-1.32-.54-1.32-1.2v-1.4c0-.3-.28-.27-.28-.27h-1.53c-.73 0-1.32-.54-1.32-1.2 0-.67.6-1.21 1.32-1.21h1.49s.32.01.32-.28v-1.38c0-.67.6-1.21 1.32-1.21.73 0 1.32.54 1.32 1.2v1.48c0 .2.28.19.28.19h1.53c.73 0 1.32.54 1.32 1.2 0 .67-.6 1.21-1.32 1.21zm6.9-22.67h-20.05c-1.37 0-2.48 1.02-2.48 2.27v29.46c0 2.32 1.8 2.27 2.48 2.27h20.04c.67 0 2.48 0 2.48-2.27v-29.46c0-1.25-1.11-2.27-2.48-2.27z"/></defs><g><g transform="translate(-510 -2496)"><use fill="#0c2583" xlink:href="#oupga"/></g></g></svg>