<svg xmlns="http://www.w3.org/2000/svg" xmlns:xlink="http://www.w3.org/1999/xlink" width="33" height="33" viewBox="0 0 33 33"><defs><path id="9f9ua" d="M502.01 2129.46v17.2h20.55v-17.2H502z"/><path id="9f9uc" d="M521.92 2133.2l-2.82-3.05a2.1 2.1 0 0 0-3.1 0l-13.45 14.52c-.18.2-.74.8-.49 1.44.07.17.28.56.87.56.19 0 .4-.04.65-.12l11.13-3.5a7.65 7.65 0 0 0 2.85-1.81l4.36-4.7a2.5 2.5 0 0 0 0-3.35z"/><path id="9f9ud" d="M531.73 2149h-26.31c-.36 0-.65-.31-.65-.7 0-.39.29-.7.65-.7h26.3c.37 0 .66.31.66.7 0 .39-.3.7-.65.7z"/><path id="9f9ue" d="M530.57 2121.76l-6.4 6.99c-.14.13-.3.2-.47.2a.62.62 0 0 1-.46-.2.74.74 0 0 1 0-.99l6.41-6.99a.62.62 0 0 1 .92 0c.25.27.26.71 0 .99zm3.9-.65l-4.18-4.51a1.5 1.5 0 0 0-2.22 0l-8.73 9.42c-.3.32-.46.75-.46 1.2 0 .46.16.88.46 1.2l4.18 4.52a1.5 1.5 0 0 0 2.22 0l8.74-9.43c.3-.32.45-.75.45-1.2 0-.46-.16-.88-.45-1.2z"/><clipPath id="9f9ub"><use xlink:href="#9f9ua"/></clipPath></defs><g><g transform="translate(-502 -2116)"><g><g/><g clip-path="url(#9f9ub)"><use fill="#0c2583" xlink:href="#9f9uc"/></g></g><g><use fill="#0c2583" xlink:href="#9f9ud"/></g><g><use fill="#0c2583" xlink:href="#9f9ue"/></g></g></g></svg>