<svg xmlns="http://www.w3.org/2000/svg" xmlns:xlink="http://www.w3.org/1999/xlink" width="32" height="30" viewBox="0 0 32 30"><defs><path id="er9ma" d="M518.96 2290.11h-15.95V2320h31.9v-29.89z"/><path id="er9mc" d="M532.67 2303.53c0 .15-.14.14-.14.14h-3.87a.7.7 0 0 0-.6.42l-.37.83c-.08.18-.1-.01-.1-.01l-1.18-5.28c-.07-.33-.32-.49-.53-.5-.2 0-.46.14-.55.47l-1.5 5.59s-.03.12-.2.12h-1.83c-.13 0-.2-.12-.2-.12l-1.33-3.06c-.1-.25-.33-.4-.56-.37-.24.02-.43.2-.5.47l-1.5 5.67s-.06.31-.13-.01l-.7-3.13c-.08-.32-.35-.55-.64-.55h-2.46c-.25 0-.33-.2-.33-.2l-1.24-3.3c-.1-.27-.31-.43-.56-.41-.24.02-.44.2-.5.48 0 0-.96 3.7-1.23 4.94-.12.53-.36.18-.36.18l-.48-.6a.73.73 0 0 0-.55-.27h-2.99c-.31 0-.3-.28-.3-.28v-10.35h27.43zm0 12.16h-27.43v-9.17s-.01-.3.28-.3h2.6c.26 0 .48.28.48.28l.99 1.25c.15.19.36.27.57.21.21-.05.37-.23.43-.47 0 0 .83-3.39 1.12-4.51.07-.27.15-.1.15-.1l.77 2.07c.1.27.36.46.62.46h2.49c.18 0 .22.21.22.21l1.1 4.85c.08.33.32.49.53.5h.01c.21 0 .46-.15.54-.48l1.67-6.29c.07-.29.18.01.18.01l.82 1.87a.7.7 0 0 0 .6.43h2.69c.28 0 .54-.22.63-.52l1.05-3.9c.05-.18.08.06.08.06l1.05 4.7c.06.27.25.47.49.5.24.02.46-.12.57-.37l.9-2.02s.02-.1.15-.1h3.51c.15 0 .14.15.14.15zm-1.3 2.59h-1.72c-.35 0-.63-.32-.63-.7 0-.4.28-.7.63-.7h1.72c.35 0 .63.3.63.7 0 .38-.28.7-.63.7zm-4.96 0h-1.72c-.35 0-.62-.32-.62-.7 0-.4.27-.7.62-.7h1.72c.34 0 .62.3.62.7 0 .38-.28.7-.62.7zm6.58-28.17h-28.07c-1.06 0-1.92.96-1.92 2.15v25.59c0 1.18.86 2.15 1.92 2.15H533c1.06 0 1.92-.97 1.92-2.15v-25.6c0-1.18-.86-2.14-1.92-2.14z"/><clipPath id="er9mb"><use xlink:href="#er9ma"/></clipPath></defs><g><g transform="translate(-503 -2290)"><g/><g clip-path="url(#er9mb)"><use fill="#0c2583" xlink:href="#er9mc"/></g></g></g></svg>